<?xml version="1.0" standalone="no"?>
<!DOCTYPE svg PUBLIC "-//W3C//DTD SVG 20010904//EN"
 "http://www.w3.org/TR/2001/REC-SVG-20010904/DTD/svg10.dtd">
<svg version="1.0" xmlns="http://www.w3.org/2000/svg"
 width="100.000000pt" height="100.000000pt" viewBox="0 0 100.000000 100.000000"
 preserveAspectRatio="xMidYMid meet">
<metadata>
Created by potrace 1.11, written by Peter Selinger 2001-2013
</metadata>
<g transform="translate(0.000000,100.000000) scale(0.100000,-0.100000)"
fill="#000000" stroke="none">
<path d="M700 735 c0 -20 5 -25 25 -25 20 0 25 5 25 25 0 20 -5 25 -25 25 -20
0 -25 -5 -25 -25z"/>
<path d="M210 521 c0 -164 1 -171 20 -171 19 0 20 7 20 122 0 67 2 119 5 116
3 -3 12 -47 20 -99 21 -134 23 -139 44 -139 16 0 21 16 37 118 l19 117 3 -117
3 -118 24 0 25 0 0 170 0 170 -38 0 -38 0 -14 -107 c-7 -60 -16 -112 -19 -118
-3 -5 -13 42 -21 105 l-15 115 -37 3 -38 3 0 -170z"/>
<path d="M525 533 c-73 -189 -71 -183 -47 -183 15 0 29 27 72 138 29 75 59
152 67 170 13 31 12 32 -9 32 -20 0 -30 -19 -83 -157z"/>
<path d="M650 665 c0 -23 4 -25 45 -25 25 0 45 -1 45 -3 0 -2 -23 -59 -50
-127 -28 -70 -48 -132 -44 -142 4 -15 17 -18 80 -18 72 0 74 1 74 24 0 23 -5
25 -49 28 l-49 3 49 120 c26 66 48 130 49 143 0 21 -4 22 -75 22 -73 0 -75 -1
-75 -25z"/>
</g>
</svg>
